# Official TMUF StadiumCar visual mesh export
# node_path: (root)/2/2FRGuard/Unassigned_0_10
# role: mudguard_skin
# material_route: skin
# paint_atlas: Diffuse.dds
# source_obj_group: StadiumCarSkin
# contract_vertex_count: 121
# triangle_count: 136
g 049__2__2FRGuard__Unassigned_0_10__mudguard_skin
usemtl StadiumCarSkin
v -0.9184997 0.68550026 2.0449996
v -0.68499964 0.6870004 2.0437493
v -0.9164996 0.6880003 2.0444996
v -0.65549964 0.5325004 1.7389995
v -0.6553882 0.504372 1.6847297
v -0.6458882 0.504372 1.6847297
v -0.6449996 0.5335003 1.7389995
v -0.6449996 0.5420003 1.7969996
v -0.65549964 0.54100037 1.7969996
v -0.6449996 0.5335003 1.8549995
v -0.65549964 0.5325004 1.8549995
v -0.65549964 0.50500035 1.9084995
v -0.64599967 0.50500035 1.9084995
v -0.9184997 0.68550026 2.0449996
v -0.9179997 0.7315004 1.9189996
v -0.9179997 0.6715003 2.0344994
v -0.91899973 0.74650025 1.9239995
v -0.91899973 0.7660003 1.7969996
v -0.9179997 0.75050044 1.7969996
v -0.9179997 0.7315004 1.6749995
v -0.91899973 0.74650025 1.6699995
v -0.91838825 0.6843718 1.5482297
v -0.9178882 0.67137194 1.5592297
v -0.91899973 0.74650025 1.9239995
v -0.9184997 0.68550026 2.0449996
v -0.9164996 0.6880003 2.0444996
v -0.9164996 0.7490003 1.9239995
v -0.9164996 0.7685003 1.7969996
v -0.91899973 0.7660003 1.7969996
v -0.91899973 0.74650025 1.6699995
v -0.9164996 0.7490003 1.6699995
v -0.9164996 0.6880003 1.5494995
v -0.91838825 0.6843718 1.5482297
v -0.68499964 0.6870004 2.0437493
v -0.68499964 0.7475003 1.9239995
v -0.68499964 0.7670003 1.7969996
v -0.68499964 0.7475003 1.6699995
v -0.68499964 0.68750036 1.5504996
v -0.66349965 0.7375003 1.9209995
v -0.66349965 0.75650036 1.7969996
v -0.66349965 0.7375003 1.6729995
v -0.66349965 0.6790004 1.5569996
v -0.66349965 0.6790004 2.0369995
v -0.65549964 0.50500035 1.9084995
v -0.64599967 0.50500035 1.9084995
v -0.65349966 0.65450037 2.0199995
v -0.6589996 0.6475003 2.0139995
v -0.66449964 0.67800033 2.0374994
v -0.6699996 0.6635003 2.0254993
v -0.68499964 0.6870004 2.0437493
v -0.6914996 0.6720003 2.0319993
v -0.9179997 0.6715003 2.0344994
v -0.66349965 0.6790004 2.0369995
v -0.6524996 0.6550003 2.0189996
v -0.65549964 0.50500035 1.9084995
v -0.66099966 0.6475003 2.0119996
v -0.6564996 0.50650036 1.9079995
v -0.6589996 0.6475003 2.0139995
v -0.6699996 0.6635003 2.0254993
v -0.67149967 0.6635003 2.0234995
v -0.66099966 0.6995003 1.9089996
v -0.67149967 0.7185004 1.9149995
v -0.66099966 0.7175003 1.7969996
v -0.67149967 0.73700035 1.7969996
v -0.67149967 0.7185004 1.6789995
v -0.66099966 0.6995003 1.6849995
v -0.6914996 0.6720003 2.0319993
v -0.69249964 0.6720003 2.0294995
v -0.69249964 0.7280003 1.9179995
v -0.69249964 0.74700034 1.7969996
v -0.69249964 0.7280003 1.6759995
v -0.69249964 0.6720003 1.5644995
v -0.67149967 0.6635003 1.5704995
v -0.66099966 0.6475003 1.5819995
v -0.9154996 0.67100036 2.0309994
v -0.9154996 0.72900033 1.9184995
v -0.9154996 0.7480004 1.7969996
v -0.9154996 0.72900033 1.6754996
v -0.9179997 0.7315004 1.9189996
v -0.9179997 0.75050044 1.7969996
v -0.9179997 0.7315004 1.6749995
v -0.9178882 0.67137194 1.5592297
v -0.9154996 0.67100036 1.5629995
v -0.6923882 0.672372 1.5602298
v -0.6700576 0.66284835 1.5677599
v -0.65888816 0.6468719 1.5797297
v -0.6564996 0.50650036 1.6859995
v -0.6553882 0.504372 1.6847297
v -0.6533882 0.653872 1.5732297
v -0.6458882 0.504372 1.6847297
v -0.6553882 0.504372 1.6847297
v -0.65888816 0.6468719 1.5797297
v -0.6643882 0.677372 1.5557296
v -0.6700576 0.66284835 1.5677599
v -0.6848882 0.685372 1.5492296
v -0.66349965 0.6790004 1.5569996
v -0.68499964 0.68750036 1.5504996
v -0.9164996 0.6880003 1.5494995
v -0.91838825 0.6843718 1.5482297
v -0.9178882 0.67137194 1.5592297
v -0.6923882 0.672372 1.5602298
v -0.66349965 0.6790004 1.5569996
v -0.6533882 0.653872 1.5732297
v -0.6643882 0.677372 1.5557296
v -0.6524996 0.6550003 1.5749996
v -0.6458882 0.504372 1.6847297
v -0.6449996 0.50650036 1.6859995
v -0.6449996 0.5335003 1.7389995
v -0.6524996 0.7095003 1.6819996
v -0.6524996 0.72850037 1.7969996
v -0.6449996 0.5420003 1.7969996
v -0.66349965 0.7375003 1.6729995
v -0.66349965 0.75650036 1.7969996
v -0.66349965 0.7375003 1.9209995
v -0.6524996 0.7095003 1.9119995
v -0.6449996 0.5335003 1.8549995
v -0.6524996 0.6550003 2.0189996
v -0.6449996 0.50650036 1.9079995
v -0.64599967 0.50500035 1.9084995
v -0.65349966 0.65450037 2.0199995
v -0.66349965 0.6790004 2.0369995
vt 0.059155233 0.7535963
vt 0.009244572 0.7540238
vt 0.05872763 0.7541307
vt 0.05362384 0.7342999
vt 0.042023588 0.73427606
vt 0.042023707 0.73224545
vt 0.05362384 0.73205554
vt 0.06602137 0.7320555
vt 0.06602137 0.7342999
vt 0.078418896 0.73205554
vt 0.07841878 0.7342999
vt 0.089854404 0.7342999
vt 0.089854404 0.7322693
vt 0.4746467 0.5756143
vt 0.4477142 0.5657818
vt 0.47765946 0.5784372
vt 0.44878292 0.5625755
vt 0.42163673 0.55840737
vt 0.42163673 0.56172043
vt 0.39555922 0.5657818
vt 0.3944905 0.5625755
vt 0.36846223 0.57585555
vt 0.3708134 0.5786342
vt 0.3052204 0.72191155
vt 0.27935663 0.7220185
vt 0.27946356 0.72244596
vt 0.3052204 0.72244596
vt 0.3323666 0.72244596
vt 0.3323666 0.72191155
vt 0.35951293 0.72191155
vt 0.35951293 0.72244596
vt 0.38526976 0.72244596
vt 0.38554108 0.7220423
vt 0.2796773 0.77192914
vt 0.3052204 0.7719292
vt 0.3323666 0.77192914
vt 0.35951293 0.7719292
vt 0.38505602 0.77192914
vt 0.30586162 0.7765248
vt 0.3323666 0.7765248
vt 0.35887158 0.7765248
vt 0.38366663 0.7765248
vt 0.2810667 0.7765248
vt 0.002938878 0.71501446
vt 0.00090826704 0.71501446
vt 0.0025113935 0.74697006
vt 0.0036870353 0.74547386
vt 0.0048626773 0.7519932
vt 0.0060383193 0.7488939
vt 0.009244572 0.75381005
vt 0.010633957 0.7507107
vt 0.059048302 0.7506038
vt 0.004648935 0.752207
vt 0.0022976513 0.74707687
vt 0.49297857 0.61264133
vt 0.48147464 0.601992
vt 0.49303424 0.61244893
vt 0.4812523 0.60216236
vt 0.47997415 0.6000825
vt 0.4801964 0.59995484
vt 0.49292302 0.59827673
vt 0.49225616 0.5960252
vt 0.5053718 0.5969907
vt 0.5053718 0.5947036
vt 0.5184875 0.5960252
vt 0.5178206 0.59827673
vt 0.47925162 0.59764457
vt 0.47952944 0.59755945
vt 0.49192277 0.59355855
vt 0.5053718 0.592201
vt 0.518821 0.59355855
vt 0.53121424 0.59755945
vt 0.5305474 0.59995484
vt 0.5292691 0.601992
vt 0.47936273 0.5786433
vt 0.49186713 0.57449955
vt 0.5053718 0.57314205
vt 0.51887655 0.57449955
vt 0.4918115 0.574108
vt 0.5053718 0.57275057
vt 0.5189321 0.574108
vt 0.5317999 0.5784135
vt 0.531381 0.5786433
vt 0.5316888 0.5975424
vt 0.53085184 0.6001241
vt 0.52952135 0.6022167
vt 0.5177095 0.61244893
vt 0.51785064 0.6126957
vt 0.006487671 0.74158573
vt 0.004884425 0.70963013
vt 0.006915036 0.70963013
vt 0.0076631936 0.7400896
vt 0.008838835 0.74660885
vt 0.010050717 0.74350435
vt 0.013220729 0.7483189
vt 0.008648935 0.74695694
vt 0.013244572 0.7487738
vt 0.06272763 0.74888074
vt 0.06313139 0.74810517
vt 0.06302446 0.7453264
vt 0.014823857 0.74554014
vt 0.37033668 0.57700366
vt 0.3738059 0.5823749
vt 0.37006524 0.57735175
vt 0.37418428 0.5821337
vt 0.39763895 0.6143305
vt 0.3979105 0.61387557
vt 0.4092392 0.6081043
vt 0.39705554 0.5704842
vt 0.42163676 0.5664231
vt 0.42163673 0.6062874
vt 0.39513174 0.5644993
vt 0.42163673 0.560438
vt 0.4481417 0.5644993
vt 0.446218 0.5704842
vt 0.43403426 0.6081043
vt 0.46908915 0.5821337
vt 0.44536293 0.61387557
vt 0.44546986 0.6141961
vt 0.4693029 0.5822405
vt 0.47293675 0.57700366
vn -0.65809524 -0.0352551 0.7521089
vn 0.21950069 0.69181913 0.6878995
vn -0.29230243 0.6316871 0.71800464
vn 0.5923015 -0.7609701 0.26477054
vn -0.40165746 -0.86601263 -0.2978143
vn 0.4884588 -0.845485 -0.21578503
vn 0.79104155 -0.58153296 0.1899283
vn 0.78543395 -0.6189455 0
vn 0.57267237 -0.81978434 0
vn 0.78908193 -0.5854479 -0.1860119
vn 0.5935998 -0.76208025 -0.2585979
vn -0.33923525 -0.89024746 0.3039391
vn 0.41575903 -0.88446844 0.21180177
vn -0.65809524 -0.0352551 0.7521089
vn -0.9265928 -0.35849154 -0.11362027
vn -0.6346004 -0.7090288 0.30750695
vn -0.91592926 0.3785318 0.13336872
vn -0.92255455 0.38586676 0
vn -0.92423135 -0.3818329 0
vn -0.92679733 -0.35857064 0.11168594
vn -0.91592926 0.3785318 -0.13336872
vn -0.63886946 -0.068590276 -0.7662514
vn -0.63250947 -0.72063005 -0.2839439
vn -0.91592926 0.3785318 0.13336872
vn -0.65809524 -0.0352551 0.7521089
vn -0.29230243 0.6316871 0.71800464
vn -0.35691077 0.89227694 0.2765078
vn -0.36631897 0.93048936 0
vn -0.92255455 0.38586676 0
vn -0.91592926 0.3785318 -0.13336872
vn -0.35691077 0.89227694 -0.2765078
vn -0.37053624 0.6587311 -0.65481013
vn -0.63886946 -0.068590276 -0.7662514
vn 0.21950069 0.69181913 0.6878995
vn 0.22150648 0.92915106 0.29599538
vn 0.22314368 0.97478557 0
vn 0.22150648 0.92915106 -0.29599538
vn 0.21772829 0.71987635 -0.65906936
vn 0.72079724 0.6600779 0.21153833
vn 0.7178113 0.6962377 0
vn 0.72079724 0.6600779 -0.21153833
vn 0.7301336 0.43376213 -0.52797294
vn 0.70577383 0.32151917 0.6312755
vn -0.33923525 -0.89024746 0.3039391
vn 0.41575903 -0.88446844 0.21180177
vn 0.40988034 -0.46871486 0.7824989
vn -0.3077402 -0.62724125 0.71544707
vn 0.29972413 -0.30756006 0.9030904
vn -0.23305173 -0.74028194 0.6306105
vn 0.14312929 -0.054898903 0.9881802
vn -0.09413575 -0.85506636 0.50990194
vn -0.6346004 -0.7090288 0.30750695
vn 0.70577383 0.32151917 0.6312755
vn 0.92936 -0.04313485 0.36664623
vn -0.33923525 -0.89024746 0.3039391
vn -0.8373998 -0.4726308 0.27455732
vn -0.9258186 -0.27402666 0.2603253
vn -0.3077402 -0.62724125 0.71544707
vn -0.23305173 -0.74028194 0.6306105
vn -0.5883835 -0.80804664 0.029419173
vn -0.9622754 -0.25869724 -0.08427259
vn -0.67606264 -0.7015375 -0.22535421
vn -0.9604815 -0.27834365 0
vn -0.67403704 -0.7386976 0
vn -0.67606264 -0.7015375 0.22535421
vn -0.961786 -0.2605245 0.08422973
vn -0.09413575 -0.85506636 0.50990194
vn -0.18794143 -0.96515757 -0.18206827
vn -0.21764666 -0.92941004 -0.29803866
vn -0.21755299 -0.9760485 0
vn -0.21764666 -0.92941004 0.29803866
vn -0.2114868 -0.9634399 0.16448973
vn -0.6383854 -0.76371264 0.095953636
vn -0.87168145 -0.44661433 -0.20175998
vn -0.2627118 -0.93909657 -0.22154053
vn -0.4000246 -0.8706418 -0.28629214
vn -0.39793748 -0.9174125 0
vn -0.4000246 -0.8706418 0.28629214
vn -0.9265928 -0.35849154 -0.11362027
vn -0.92423135 -0.3818329 0
vn -0.92679733 -0.35857064 0.11168594
vn -0.63250947 -0.72063005 -0.2839439
vn -0.2781252 -0.93034834 0.23895264
vn -0.07647206 -0.85687923 -0.5098137
vn -0.29796076 -0.7782265 -0.5527956
vn -0.39804688 -0.6196198 -0.6764836
vn -0.9595124 -0.1742788 -0.22127533
vn -0.40165746 -0.86601263 -0.2978143
vn 0.53678864 -0.41140738 -0.7366151
vn 0.4884588 -0.845485 -0.21578503
vn -0.40165746 -0.86601263 -0.2978143
vn -0.39804688 -0.6196198 -0.6764836
vn 0.4329664 -0.16848467 -0.8855241
vn -0.29796076 -0.7782265 -0.5527956
vn 0.1548255 -0.019598164 -0.98774743
vn 0.7301336 0.43376213 -0.52797294
vn 0.21772829 0.71987635 -0.65906936
vn -0.37053624 0.6587311 -0.65481013
vn -0.63886946 -0.068590276 -0.7662514
vn -0.63250947 -0.72063005 -0.2839439
vn -0.07647206 -0.85687923 -0.5098137
vn 0.7301336 0.43376213 -0.52797294
vn 0.53678864 -0.41140738 -0.7366151
vn 0.4329664 -0.16848467 -0.8855241
vn 0.9665515 0.052934866 -0.2509505
vn 0.4884588 -0.845485 -0.21578503
vn 0.9638521 -0.26643068 -0.001959049
vn 0.79104155 -0.58153296 0.1899283
vn 0.97730666 0.20172864 -0.06463151
vn 0.97563076 0.21941897 0
vn 0.78543395 -0.6189455 0
vn 0.72079724 0.6600779 -0.21153833
vn 0.7178113 0.6962377 0
vn 0.72079724 0.6600779 0.21153833
vn 0.97730666 0.20172864 0.06463151
vn 0.78908193 -0.5854479 -0.1860119
vn 0.92936 -0.04313485 0.36664623
vn 0.92709816 -0.3665272 0.078401536
vn 0.41575903 -0.88446844 0.21180177
vn 0.40988034 -0.46871486 0.7824989
vn 0.70577383 0.32151917 0.6312755
f 1/1/1 2/2/2 3/3/3
f 4/4/4 5/5/5 6/6/6
f 4/4/4 6/6/6 7/7/7
f 4/4/4 7/7/7 8/8/8
f 4/4/4 8/8/8 9/9/9
f 9/9/9 8/8/8 10/10/10
f 9/9/9 10/10/10 11/11/11
f 12/12/12 11/11/11 10/10/10
f 12/12/12 10/10/10 13/13/13
f 14/14/14 15/15/15 16/16/16
f 14/14/14 17/17/17 15/15/15
f 18/18/18 15/15/15 17/17/17
f 18/18/18 19/19/19 15/15/15
f 20/20/20 19/19/19 18/18/18
f 20/20/20 18/18/18 21/21/21
f 20/20/20 21/21/21 22/22/22
f 20/20/20 22/22/22 23/23/23
f 24/24/24 25/25/25 26/26/26
f 24/24/24 26/26/26 27/27/27
f 28/28/28 24/24/24 27/27/27
f 28/28/28 29/29/29 24/24/24
f 30/30/30 29/29/29 28/28/28
f 30/30/30 28/28/28 31/31/31
f 32/32/32 30/30/30 31/31/31
f 32/32/32 33/33/33 30/30/30
f 27/27/27 26/26/26 34/34/34
f 27/27/27 34/34/34 35/35/35
f 28/28/28 27/27/27 35/35/35
f 28/28/28 35/35/35 36/36/36
f 37/37/37 28/28/28 36/36/36
f 37/37/37 31/31/31 28/28/28
f 38/38/38 31/31/31 37/37/37
f 38/38/38 32/32/32 31/31/31
f 39/39/39 35/35/35 34/34/34
f 40/40/40 35/35/35 39/39/39
f 40/40/40 36/36/36 35/35/35
f 37/37/37 36/36/36 40/40/40
f 37/37/37 40/40/40 41/41/41
f 38/38/38 37/37/37 41/41/41
f 38/38/38 41/41/41 42/42/42
f 39/39/39 34/34/34 43/43/43
f 44/44/44 45/45/45 46/46/46
f 44/44/44 46/46/46 47/47/47
f 47/47/47 46/46/46 48/48/48
f 47/47/47 48/48/48 49/49/49
f 49/49/49 48/48/48 50/50/50
f 49/49/49 50/50/50 51/51/51
f 52/52/52 51/51/51 50/50/50
f 52/52/52 50/50/50 1/1/1
f 46/46/46 53/53/53 48/48/48
f 50/50/50 48/48/48 53/53/53
f 46/46/46 54/54/54 53/53/53
f 55/55/55 56/56/56 57/57/57
f 55/55/55 58/58/58 56/56/56
f 59/59/59 56/56/56 58/58/58
f 59/59/59 60/60/60 56/56/56
f 60/60/60 61/61/61 56/56/56
f 60/60/60 62/62/62 61/61/61
f 62/62/62 63/63/63 61/61/61
f 62/62/62 64/64/64 63/63/63
f 63/63/63 64/64/64 65/65/65
f 63/63/63 65/65/65 66/66/66
f 67/67/67 60/60/60 59/59/59
f 67/67/67 68/68/68 60/60/60
f 68/68/68 62/62/62 60/60/60
f 68/68/68 69/69/69 62/62/62
f 69/69/69 64/64/64 62/62/62
f 69/69/69 70/70/70 64/64/64
f 64/64/64 70/70/70 71/71/71
f 64/64/64 71/71/71 65/65/65
f 65/65/65 71/71/71 72/72/72
f 65/65/65 72/72/72 73/73/73
f 66/66/66 65/65/65 73/73/73
f 66/66/66 73/73/73 74/74/74
f 16/16/16 68/68/68 67/67/67
f 16/16/16 75/75/75 68/68/68
f 68/68/68 75/75/75 76/76/76
f 68/68/68 76/76/76 69/69/69
f 69/69/69 76/76/76 77/77/77
f 69/69/69 77/77/77 70/70/70
f 77/77/77 71/71/71 70/70/70
f 77/77/77 78/78/78 71/71/71
f 78/78/78 72/72/72 71/71/71
f 16/16/16 76/76/76 75/75/75
f 16/16/16 79/79/79 76/76/76
f 80/80/80 76/76/76 79/79/79
f 80/80/80 77/77/77 76/76/76
f 78/78/78 77/77/77 80/80/80
f 78/78/78 80/80/80 81/81/81
f 78/78/78 81/81/81 82/82/82
f 78/78/78 82/82/82 83/83/83
f 78/78/78 83/83/83 72/72/72
f 72/72/72 83/83/83 82/82/82
f 72/72/72 82/82/82 84/84/84
f 73/73/73 72/72/72 84/84/84
f 73/73/73 84/84/84 85/85/85
f 74/74/74 73/73/73 85/85/85
f 74/74/74 85/85/85 86/86/86
f 86/86/86 87/87/87 74/74/74
f 86/86/86 88/88/88 87/87/87
f 89/89/89 90/90/90 91/91/91
f 89/89/89 91/91/91 92/92/92
f 93/93/93 89/89/89 92/92/92
f 93/93/93 92/92/92 94/94/94
f 95/95/95 93/93/93 94/94/94
f 96/96/96 93/93/93 95/95/95
f 96/96/96 95/95/95 97/97/97
f 95/95/95 98/98/98 97/97/97
f 95/95/95 99/99/99 98/98/98
f 95/95/95 100/100/100 99/99/99
f 95/95/95 101/101/101 100/100/100
f 95/95/95 94/94/94 101/101/101
f 102/102/102 103/103/103 104/104/104
f 102/102/102 105/105/105 103/103/103
f 106/106/106 103/103/103 105/105/105
f 106/106/106 105/105/105 107/107/107
f 108/108/108 106/106/106 107/107/107
f 109/109/109 108/108/108 107/107/107
f 110/110/110 108/108/108 109/109/109
f 110/110/110 111/111/111 108/108/108
f 102/102/102 109/109/109 105/105/105
f 109/109/109 107/107/107 105/105/105
f 102/102/102 112/112/112 109/109/109
f 112/112/112 110/110/110 109/109/109
f 112/112/112 113/113/113 110/110/110
f 110/110/110 113/113/113 114/114/114
f 110/110/110 114/114/114 115/115/115
f 111/111/111 110/110/110 115/115/115
f 111/111/111 115/115/115 116/116/116
f 116/116/116 115/115/115 117/117/117
f 116/116/116 117/117/117 118/118/118
f 119/119/119 116/116/116 118/118/118
f 120/120/120 119/119/119 118/118/118
f 120/120/120 118/118/118 117/117/117
f 115/115/115 114/114/114 121/121/121
f 115/115/115 121/121/121 117/117/117
